<svg xmlns="http://www.w3.org/2000/svg" width="109" height="33" viewBox="0 0 109 33" fill="none">
  <path fill-rule="evenodd" clip-rule="evenodd" d="M27.7273 27.55C29.8047 21.3428 31.7003 15.0032 33.534 8.72359C30.1369 9.99861 27.1671 11.6813 24.0647 13.5702C22.6229 10.7614 19.4872 6.9358 17.146 4.83862C14.0843 7.48144 11.8324 9.9434 9.3359 13.0288C6.99039 10.8789 4.60861 9.15713 1.79156 7.65127C2.34668 13.7629 3.30257 19.7987 4.60055 25.7952C7.66523 25.7558 10.3574 25.113 13.4287 25.237C18.7065 25.4496 22.5848 26.199 27.7273 27.55Z" stroke="url(#paint0_linear_1_314)" stroke-width="3.4417" stroke-miterlimit="1.5" stroke-linecap="round" stroke-linejoin="round"/>
  <path d="M73.2017 25.0441L83.866 25.6437L79.6457 11.9549L76.1021 11.7557L72.4725 20.0411L73.566 20.1026C74.5398 20.1574 75.4445 19.5888 75.8173 18.6874L77.739 14.0394L80.4656 23.5397L71.1712 23.0171L68.7974 28.4362C70.584 28.4589 72.2227 27.3899 72.9147 25.7291L73.2017 25.0441Z" fill="white"/>
  <path d="M79.8427 11.7015L75.9324 11.4816L72.0767 20.2824L73.5497 20.3652C74.6354 20.4263 75.6438 19.7922 76.0593 18.7875L77.6917 14.8388L80.1066 23.255L71.0016 22.743L68.4006 28.6823L68.5899 28.6929C70.5614 28.8038 72.3971 27.6537 73.1575 25.8309L73.3715 25.3172L84.2275 25.9276L79.8427 11.7015ZM68.7967 28.4361L71.1705 23.017L80.464 23.5395L77.7375 14.0392L75.8158 18.6872C75.4429 19.5886 74.5383 20.1572 73.5645 20.1024L72.4709 20.0409L76.1005 11.7555L79.6441 11.9547L83.8637 25.6435L73.1993 25.0439L72.9132 25.7298C72.222 27.3898 70.5832 28.4588 68.7967 28.4361Z" fill="white"/>
  <path d="M55.7352 15.8561C55.8257 14.2473 55.4004 12.9324 54.4708 11.9489C53.5375 10.9613 52.0551 10.4035 50.0652 10.2916L43.9797 9.94946C43.9842 11.0964 44.8844 12.0598 46.0451 12.1251L49.5711 12.3233C50.8077 12.3929 51.6736 12.7124 52.2192 13.3C52.7599 13.8874 53.0054 14.6945 52.9489 15.6994C52.8997 16.5757 52.6296 17.2738 52.1472 17.7731C51.5209 18.4223 50.5482 18.7186 49.2561 18.6531L49.1421 20.6806L49.4808 20.6996C51.4036 20.8077 52.9233 20.4172 53.9992 19.5393C55.0625 18.6711 55.6467 17.4314 55.7352 15.8561Z" fill="white"/>
  <path d="M54.6633 11.7682C53.6823 10.7298 52.1405 10.1447 50.0812 10.0289L43.7273 9.67163L43.7199 9.80344C43.644 11.1535 44.6807 12.3128 46.0299 12.3887L49.5559 12.5869C50.7206 12.6524 51.5279 12.9446 52.0251 13.4798C52.5153 14.0122 52.7372 14.7548 52.6849 15.6854C52.6393 16.4962 52.394 17.1379 51.9567 17.5909C51.3789 18.1891 50.4615 18.4573 49.2289 18.388L49.006 18.3754L48.8625 20.9293L49.4648 20.9631C51.4555 21.0751 53.0364 20.6647 54.1643 19.7441C55.2881 18.8264 55.9047 17.5236 55.9976 15.8709C56.0939 14.187 55.6442 12.8066 54.6633 11.7682ZM49.1425 20.6806L49.2565 18.6532C50.5486 18.7186 51.5212 18.4231 52.1476 17.7732C52.63 17.273 52.9001 16.575 52.9493 15.6995C53.0058 14.6945 52.7603 13.8874 52.2196 13.3C51.674 12.7124 50.8081 12.3929 49.5715 12.3234L46.0455 12.1251C44.8856 12.0599 43.9845 11.0973 43.9801 9.94949L50.0664 10.2917C52.0563 10.4036 53.5387 10.9613 54.472 11.949C55.4016 12.9324 55.8269 14.2473 55.7364 15.8562C55.6479 17.4315 55.0637 18.6704 53.9996 19.5393C52.9245 20.4172 51.404 20.8077 49.4812 20.6996L49.1425 20.6806Z" fill="white"/>
  <path d="M43.9443 18.4379L43.501 18.413L43.0186 26.9916L45.7546 27.1454L46.1081 20.8594C46.1792 19.5949 45.2089 18.509 43.9443 18.4379Z" fill="white"/>
  <path d="M43.9584 18.1741L43.2515 18.1344L42.7395 27.2394L46.0027 27.4229L46.371 20.8733C46.4502 19.4642 45.3684 18.2534 43.9584 18.1741ZM45.7539 27.1445L43.018 26.9906L43.5003 18.4128L43.9436 18.4378C45.2073 18.5088 46.1784 19.5948 46.1073 20.8593L45.7539 27.1445Z" fill="white"/>
  <path d="M92.0591 28.7962L92.0057 29.746L94.7672 29.9013L94.9495 26.6588L94.4806 26.6324C93.2161 26.5613 92.1302 27.5316 92.0591 28.7962Z" fill="white"/>
  <path d="M91.795 28.7815L91.7268 29.9949L95.0155 30.1798L95.2275 26.4101L94.495 26.3689C93.085 26.2897 91.8743 27.3715 91.795 28.7815ZM94.7668 29.9006L92.0052 29.7453L92.0586 28.7955C92.1297 27.5317 93.2156 26.5607 94.4802 26.6318L94.9491 26.6581L94.7668 29.9006Z" fill="white"/>
  <path d="M90.3109 12.5546L87.1587 12.3773L92.1897 23.4785L93.8952 23.5744C94.7531 23.6226 95.5593 23.1935 95.9984 22.4545L101.506 13.184L98.4286 13.011L93.8996 21.1441L90.3109 12.5546Z" fill="white"/>
  <path d="M93.9336 20.5411L90.4911 12.3003L86.739 12.0894L91.9824 23.66L92.0151 23.7332L93.8804 23.838C94.8374 23.8919 95.7354 23.4135 96.2248 22.5899L101.955 12.9457L98.278 12.739L93.9336 20.5411ZM101.506 13.1841L95.9984 22.4554C95.5594 23.1944 94.7539 23.6235 93.8952 23.5752L92.1897 23.4793L87.1587 12.3782L90.3109 12.5554L93.8996 21.145L98.4286 13.0119L101.506 13.1849L101.506 13.1841Z" fill="white"/>
  <path d="M61.3847 10.9282L58.6487 10.7744L57.9669 22.9006L58.4102 22.9255C59.674 22.9966 60.7607 22.0264 60.8318 20.7618L61.3847 10.9282Z" fill="white"/>
  <path d="M61.0947 20.7766L61.6624 10.6795L58.3992 10.496L57.6877 23.1494L58.3947 23.1891C59.8038 23.2684 61.0154 22.1866 61.0947 20.7766ZM58.4095 22.9255L57.9661 22.9006L58.648 10.7744L61.3839 10.9282L60.831 20.7618C60.7599 22.0264 59.6732 22.9966 58.4095 22.9255Z" fill="white"/>
  <path d="M64.5019 26.2925L57.7974 25.9155L57.6905 27.8159L66.4233 28.307C66.4142 27.2438 65.5779 26.353 64.5019 26.2925Z" fill="white"/>
  <path d="M57.4114 28.0646L66.6754 28.5855L66.6828 28.4537C66.754 27.1875 65.7822 26.0999 64.516 26.0288L57.5479 25.637L57.4114 28.0646ZM57.7966 25.9154L64.5012 26.2924C65.5772 26.3529 66.4134 27.2437 66.4226 28.3068L57.6898 27.8158L57.7966 25.9154Z" fill="white"/>
  <path d="M93.0481 7.70349C93.3039 8.08397 93.5467 8.47492 93.8099 8.85015" stroke="white" stroke-width="1.68649" stroke-miterlimit="1.5" stroke-linecap="round" stroke-linejoin="round"/>
  <path d="M99.2488 6.23083C99.1173 6.72304 99.0246 7.22407 98.9004 7.71778" stroke="white" stroke-width="1.68649" stroke-miterlimit="1.5" stroke-linecap="round" stroke-linejoin="round"/>
  <path d="M103.071 10.6534C103.71 10.3822 104.319 10.0471 104.957 9.77439" stroke="white" stroke-width="1.68649" stroke-miterlimit="1.5" stroke-linecap="round" stroke-linejoin="round"/>
  <path d="M105.135 16.8664C105.807 17.0061 106.49 17.1586 107.173 17.2378" stroke="white" stroke-width="1.68649" stroke-miterlimit="1.5" stroke-linecap="round" stroke-linejoin="round"/>
  <defs>
    <linearGradient id="paint0_linear_1_314" x1="0.927501" y1="19.9988" x2="31.5479" y2="22.3457" gradientUnits="userSpaceOnUse">
      <stop stop-color="#C1260F"/>
      <stop offset="1" stop-color="#EE642A"/>
    </linearGradient>
  </defs>
</svg>