<svg xmlns="http://www.w3.org/2000/svg" width="110" height="44" viewBox="0 0 110 44" fill="none">
  <path fill-rule="evenodd" clip-rule="evenodd" d="M31.5718 38.171C32.2377 31.6593 32.6973 25.0583 33.1095 18.5295C30.0746 20.5183 27.546 22.8112 24.9333 25.3343C22.9106 22.91 19.0125 19.865 16.2685 18.3321C13.8607 21.5819 12.2034 24.4777 10.4441 28.0354C7.6843 26.4521 4.98297 25.2944 1.90431 24.4428C3.78588 30.284 6.04188 35.9634 8.62298 41.5294C11.6045 40.819 14.0902 39.6016 17.1139 39.0492C22.31 38.0995 26.2582 37.9803 31.5718 38.171Z" stroke="url(#paint0_linear_1_592)" stroke-width="3.4417" stroke-miterlimit="1.5" stroke-linecap="round" stroke-linejoin="round"/>
  <path d="M75.39 25.756L85.9264 24.0029L78.8075 11.5725L75.3064 12.155L73.5817 21.0347L74.6621 20.8549C75.6242 20.6948 76.3822 19.9417 76.5483 18.9805L77.4042 14.0243L82.1474 22.6956L72.9646 24.2235L71.8367 30.0313C73.5847 29.6617 74.9493 28.2594 75.2603 26.4873L75.39 25.756Z" fill="black"/>
  <path d="M78.9442 11.282L75.0809 11.9248L73.2486 21.3569L74.704 21.1147C75.7765 20.9363 76.6215 20.0965 76.8066 19.0251L77.5335 14.8146L81.7349 22.4966L72.7391 23.9934L71.5036 30.3583L71.6906 30.3272C73.6385 30.0031 75.1773 28.4785 75.5196 26.5334L75.6157 25.9853L86.3415 24.2007L78.9442 11.282ZM71.8361 30.0313L72.964 24.2236L82.146 22.6958L77.4028 14.0245L76.5469 18.9807C76.3808 19.9419 75.6228 20.695 74.6608 20.8551L73.5803 21.0349L75.305 12.1552L78.8061 11.5727L85.9242 24.0032L75.3879 25.7564L75.259 26.4883C74.9486 28.2595 73.5841 29.6618 71.8361 30.0313Z" fill="black"/>
  <path d="M56.3343 20.6212C56.0698 19.0317 55.3666 17.842 54.244 17.0863C53.1169 16.3273 51.5482 16.1082 49.5822 16.4353L43.5698 17.4357C43.8256 18.5538 44.9152 19.2963 46.0619 19.1055L49.5456 18.5259C50.7674 18.3226 51.6823 18.4445 52.3434 18.8982C52.9998 19.3527 53.4163 20.0864 53.5815 21.0792C53.7255 21.945 53.6151 22.6853 53.2539 23.2783C52.7851 24.0489 51.9011 24.5513 50.6261 24.7707L50.9594 26.7738L51.294 26.7181C53.1937 26.402 54.5908 25.6878 55.448 24.5954C56.2951 23.5152 56.5933 22.1776 56.3343 20.6212Z" fill="black"/>
  <path d="M54.3923 16.8678C53.2075 16.0698 51.575 15.8369 49.5403 16.1755L43.2627 17.22L43.2844 17.3502C43.5063 18.684 44.7719 19.5879 46.105 19.3661L49.5887 18.7864C50.7394 18.5949 51.5911 18.703 52.1936 19.1162C52.7885 19.5282 53.1678 20.204 53.3208 21.1235C53.4541 21.9245 53.3555 22.6044 53.0281 23.1423C52.5956 23.8526 51.7593 24.3154 50.5415 24.518L50.3213 24.5546L50.7411 27.0778L51.3362 26.9788C53.303 26.6516 54.7555 25.9046 55.6542 24.759C56.5494 23.6173 56.8654 22.211 56.5937 20.5781C56.3184 18.9141 55.577 17.6659 54.3923 16.8678ZM50.9598 26.7738L50.6265 24.7707C51.9016 24.5512 52.7857 24.0497 53.2543 23.2782C53.6154 22.6845 53.7259 21.9442 53.5819 21.0792C53.4167 20.0863 53.0002 19.3527 52.3439 18.8982C51.6828 18.4445 50.7679 18.3225 49.5461 18.5258L46.0624 19.1055C44.9164 19.2962 43.8262 18.5545 43.5703 17.4356L49.5835 16.4351C51.5495 16.108 53.1181 16.3272 54.2453 17.0862C55.3679 17.8419 56.0711 19.0315 56.3356 20.621C56.5945 22.1774 56.2963 23.5142 55.4485 24.5954C54.592 25.6876 53.1942 26.402 51.2945 26.7181L50.9598 26.7738Z" fill="black"/>
  <path d="M45.3963 25.7255L44.9583 25.7983L46.3685 34.274L49.0716 33.8242L48.0383 27.6137C47.8304 26.3643 46.6456 25.5176 45.3963 25.7255Z" fill="black"/>
  <path d="M45.3523 25.465L44.6538 25.5812L46.1506 34.5769L49.3746 34.0405L48.2979 27.5695C48.0663 26.1773 46.7453 25.2332 45.3523 25.465ZM49.0709 33.8234L46.3677 34.2731L44.9576 25.7983L45.3956 25.7254C46.6442 25.5177 47.8297 26.3643 48.0376 27.6136L49.0709 33.8234Z" fill="black"/>
  <path d="M94.6118 25.2822L94.7679 26.2206L97.4963 25.7666L96.9633 22.5631L96.5 22.6402C95.2506 22.8481 94.4039 24.0328 94.6118 25.2822Z" fill="black"/>
  <path d="M94.3506 25.3257L94.5501 26.5246L97.7994 25.9839L97.1797 22.2595L96.456 22.3799C95.063 22.6117 94.1189 23.9327 94.3506 25.3257ZM97.4955 25.766L94.7671 26.22L94.611 25.2816C94.4032 24.033 95.2498 22.8475 96.4992 22.6396L96.9625 22.5625L97.4955 25.766Z" fill="black"/>
  <path d="M89.3451 9.81909L86.2307 10.3373L93.5732 20.0653L95.2582 19.7849C96.1059 19.6439 96.7984 19.0485 97.0647 18.2312L100.406 7.97864L97.3653 8.48462L94.7297 17.4128L89.3451 9.81909Z" fill="black"/>
  <path d="M94.6306 16.817L89.4651 9.53151L85.7581 10.1483L93.4107 20.2878L93.4587 20.352L95.3016 20.0454C96.2471 19.8881 97.0183 19.2244 97.3153 18.3137L100.792 7.64772L97.1587 8.25219L94.6306 16.817ZM100.406 7.97869L97.0649 18.232C96.7986 19.0493 96.1068 19.6446 95.2584 19.7857L93.5733 20.0661L86.2309 10.3381L89.3452 9.81993L94.7299 17.4137L97.3655 8.48545L100.406 7.97948L100.406 7.97869Z" fill="black"/>
  <path d="M60.7659 14.5743L58.0627 15.024L60.0562 27.0047L60.4942 26.9318C61.7428 26.7241 62.5903 25.5392 62.3824 24.2898L60.7659 14.5743Z" fill="black"/>
  <path d="M62.6422 24.2467L60.9823 14.2707L57.7583 14.8071L59.8384 27.3087L60.5369 27.1925C61.9291 26.9608 62.874 25.6397 62.6422 24.2467ZM60.4936 26.932L60.0555 27.0049L58.0621 15.0242L60.7652 14.5745L62.3818 24.29C62.5897 25.5394 61.7421 26.7243 60.4936 26.932Z" fill="black"/>
  <path d="M67.1758 28.8814L60.5518 29.9835L60.8642 31.8611L69.4921 30.4255C69.2501 29.3903 68.2389 28.7045 67.1758 28.8814Z" fill="black"/>
  <path d="M60.6464 32.1649L69.7992 30.6419L69.7775 30.5117C69.5694 29.2608 68.3828 28.4127 67.1318 28.6209L60.2473 29.7664L60.6464 32.1649ZM60.5511 29.9835L67.1752 28.8813C68.2383 28.7044 69.2495 29.3902 69.4915 30.4255L60.8635 31.8611L60.5511 29.9835Z" fill="black"/>
  <path d="M90.9517 4.48584C91.2846 4.80098 91.6072 5.12919 91.9463 5.43757" stroke="black" stroke-width="1.68649" stroke-miterlimit="1.5" stroke-linecap="round" stroke-linejoin="round"/>
  <path d="M96.679 1.68982C96.6586 2.19886 96.678 2.70804 96.6651 3.21696" stroke="black" stroke-width="1.68649" stroke-miterlimit="1.5" stroke-linecap="round" stroke-linejoin="round"/>
  <path d="M101.378 5.16664C101.941 4.76201 102.462 4.30148 103.025 3.89561" stroke="black" stroke-width="1.68649" stroke-miterlimit="1.5" stroke-linecap="round" stroke-linejoin="round"/>
  <path d="M104.753 10.7763C105.44 10.7651 106.139 10.7643 106.823 10.6918" stroke="black" stroke-width="1.68649" stroke-miterlimit="1.5" stroke-linecap="round" stroke-linejoin="round"/>
  <defs>
    <linearGradient id="paint0_linear_1_592" x1="3.76844" y1="36.6793" x2="34.1584" y2="32.2557" gradientUnits="userSpaceOnUse">
      <stop stop-color="#C1260F"/>
      <stop offset="1" stop-color="#EE642A"/>
    </linearGradient>
  </defs>
</svg>